<mxfile host="app.diagrams.net" modified="2020-07-24T07:18:52.104Z" agent="5.0 (Macintosh; Intel Mac OS X 10_15_5) AppleWebKit/537.36 (KHTML, like Gecko) Chrome/83.0.4103.116 Safari/537.36" etag="bBIvgAOT5a4uzrt5lPaf" version="13.5.1" type="github">
  <diagram id="HzCLPEK90WwXSqURGk5y" name="Page-1">
    <mxGraphModel dx="2066" dy="1105" grid="1" gridSize="10" guides="1" tooltips="1" connect="1" arrows="1" fold="1" page="1" pageScale="1" pageWidth="827" pageHeight="1169" math="0" shadow="0">
      <root>
        <mxCell id="0" />
        <mxCell id="1" parent="0" />
        <mxCell id="4mkFXGUz_fzoKGArRzta-24" value="" style="shape=table;html=1;whiteSpace=wrap;startSize=0;container=1;collapsible=0;childLayout=tableLayout;" parent="1" vertex="1">
          <mxGeometry x="480" y="230" width="340" height="200" as="geometry" />
        </mxCell>
        <mxCell id="4mkFXGUz_fzoKGArRzta-25" value="" style="shape=partialRectangle;html=1;whiteSpace=wrap;collapsible=0;dropTarget=0;pointerEvents=0;fillColor=none;top=0;left=0;bottom=0;right=0;points=[[0,0.5],[1,0.5]];portConstraint=eastwest;" parent="4mkFXGUz_fzoKGArRzta-24" vertex="1">
          <mxGeometry width="340" height="40" as="geometry" />
        </mxCell>
        <mxCell id="4mkFXGUz_fzoKGArRzta-26" value="Process" style="shape=partialRectangle;html=1;whiteSpace=wrap;connectable=0;overflow=hidden;fillColor=none;top=0;left=0;bottom=0;right=0;" parent="4mkFXGUz_fzoKGArRzta-25" vertex="1">
          <mxGeometry width="113" height="40" as="geometry" />
        </mxCell>
        <mxCell id="4mkFXGUz_fzoKGArRzta-27" value="Arrival Time" style="shape=partialRectangle;html=1;whiteSpace=wrap;connectable=0;overflow=hidden;fillColor=none;top=0;left=0;bottom=0;right=0;" parent="4mkFXGUz_fzoKGArRzta-25" vertex="1">
          <mxGeometry x="113" width="114" height="40" as="geometry" />
        </mxCell>
        <mxCell id="4mkFXGUz_fzoKGArRzta-28" value="Burst&lt;br&gt;Time" style="shape=partialRectangle;html=1;whiteSpace=wrap;connectable=0;overflow=hidden;fillColor=none;top=0;left=0;bottom=0;right=0;" parent="4mkFXGUz_fzoKGArRzta-25" vertex="1">
          <mxGeometry x="227" width="113" height="40" as="geometry" />
        </mxCell>
        <mxCell id="4mkFXGUz_fzoKGArRzta-29" value="" style="shape=partialRectangle;html=1;whiteSpace=wrap;collapsible=0;dropTarget=0;pointerEvents=0;fillColor=none;top=0;left=0;bottom=0;right=0;points=[[0,0.5],[1,0.5]];portConstraint=eastwest;" parent="4mkFXGUz_fzoKGArRzta-24" vertex="1">
          <mxGeometry y="40" width="340" height="40" as="geometry" />
        </mxCell>
        <mxCell id="4mkFXGUz_fzoKGArRzta-30" value="P1" style="shape=partialRectangle;html=1;whiteSpace=wrap;connectable=0;overflow=hidden;fillColor=#fff2cc;top=0;left=0;bottom=0;right=0;strokeColor=#d6b656;" parent="4mkFXGUz_fzoKGArRzta-29" vertex="1">
          <mxGeometry width="113" height="40" as="geometry" />
        </mxCell>
        <mxCell id="4mkFXGUz_fzoKGArRzta-31" value="0" style="shape=partialRectangle;html=1;whiteSpace=wrap;connectable=0;overflow=hidden;fillColor=#fff2cc;top=0;left=0;bottom=0;right=0;strokeColor=#d6b656;" parent="4mkFXGUz_fzoKGArRzta-29" vertex="1">
          <mxGeometry x="113" width="114" height="40" as="geometry" />
        </mxCell>
        <mxCell id="4mkFXGUz_fzoKGArRzta-32" value="7" style="shape=partialRectangle;html=1;whiteSpace=wrap;connectable=0;overflow=hidden;fillColor=#fff2cc;top=0;left=0;bottom=0;right=0;strokeColor=#d6b656;" parent="4mkFXGUz_fzoKGArRzta-29" vertex="1">
          <mxGeometry x="227" width="113" height="40" as="geometry" />
        </mxCell>
        <mxCell id="4mkFXGUz_fzoKGArRzta-33" value="" style="shape=partialRectangle;html=1;whiteSpace=wrap;collapsible=0;dropTarget=0;pointerEvents=0;fillColor=none;top=0;left=0;bottom=0;right=0;points=[[0,0.5],[1,0.5]];portConstraint=eastwest;" parent="4mkFXGUz_fzoKGArRzta-24" vertex="1">
          <mxGeometry y="80" width="340" height="40" as="geometry" />
        </mxCell>
        <mxCell id="4mkFXGUz_fzoKGArRzta-34" value="P2" style="shape=partialRectangle;html=1;whiteSpace=wrap;connectable=0;overflow=hidden;fillColor=#f8cecc;top=0;left=0;bottom=0;right=0;strokeColor=#b85450;" parent="4mkFXGUz_fzoKGArRzta-33" vertex="1">
          <mxGeometry width="113" height="40" as="geometry" />
        </mxCell>
        <mxCell id="4mkFXGUz_fzoKGArRzta-35" value="2" style="shape=partialRectangle;html=1;whiteSpace=wrap;connectable=0;overflow=hidden;fillColor=#f8cecc;top=0;left=0;bottom=0;right=0;strokeColor=#b85450;" parent="4mkFXGUz_fzoKGArRzta-33" vertex="1">
          <mxGeometry x="113" width="114" height="40" as="geometry" />
        </mxCell>
        <mxCell id="4mkFXGUz_fzoKGArRzta-36" value="4" style="shape=partialRectangle;html=1;whiteSpace=wrap;connectable=0;overflow=hidden;fillColor=#f8cecc;top=0;left=0;bottom=0;right=0;strokeColor=#b85450;" parent="4mkFXGUz_fzoKGArRzta-33" vertex="1">
          <mxGeometry x="227" width="113" height="40" as="geometry" />
        </mxCell>
        <mxCell id="4mkFXGUz_fzoKGArRzta-37" value="" style="shape=partialRectangle;html=1;whiteSpace=wrap;collapsible=0;dropTarget=0;pointerEvents=0;fillColor=none;top=0;left=0;bottom=0;right=0;points=[[0,0.5],[1,0.5]];portConstraint=eastwest;" parent="4mkFXGUz_fzoKGArRzta-24" vertex="1">
          <mxGeometry y="120" width="340" height="40" as="geometry" />
        </mxCell>
        <mxCell id="4mkFXGUz_fzoKGArRzta-38" value="P3" style="shape=partialRectangle;html=1;whiteSpace=wrap;connectable=0;overflow=hidden;fillColor=#e1d5e7;top=0;left=0;bottom=0;right=0;strokeColor=#9673a6;" parent="4mkFXGUz_fzoKGArRzta-37" vertex="1">
          <mxGeometry width="113" height="40" as="geometry" />
        </mxCell>
        <mxCell id="4mkFXGUz_fzoKGArRzta-39" value="4" style="shape=partialRectangle;html=1;whiteSpace=wrap;connectable=0;overflow=hidden;fillColor=#e1d5e7;top=0;left=0;bottom=0;right=0;strokeColor=#9673a6;" parent="4mkFXGUz_fzoKGArRzta-37" vertex="1">
          <mxGeometry x="113" width="114" height="40" as="geometry" />
        </mxCell>
        <mxCell id="4mkFXGUz_fzoKGArRzta-40" value="2" style="shape=partialRectangle;html=1;whiteSpace=wrap;connectable=0;overflow=hidden;fillColor=#e1d5e7;top=0;left=0;bottom=0;right=0;strokeColor=#9673a6;" parent="4mkFXGUz_fzoKGArRzta-37" vertex="1">
          <mxGeometry x="227" width="113" height="40" as="geometry" />
        </mxCell>
        <mxCell id="4mkFXGUz_fzoKGArRzta-41" value="" style="shape=partialRectangle;html=1;whiteSpace=wrap;collapsible=0;dropTarget=0;pointerEvents=0;fillColor=none;top=0;left=0;bottom=0;right=0;points=[[0,0.5],[1,0.5]];portConstraint=eastwest;" parent="4mkFXGUz_fzoKGArRzta-24" vertex="1">
          <mxGeometry y="160" width="340" height="40" as="geometry" />
        </mxCell>
        <mxCell id="4mkFXGUz_fzoKGArRzta-42" value="P4" style="shape=partialRectangle;html=1;whiteSpace=wrap;connectable=0;overflow=hidden;fillColor=#dae8fc;top=0;left=0;bottom=0;right=0;strokeColor=#6c8ebf;" parent="4mkFXGUz_fzoKGArRzta-41" vertex="1">
          <mxGeometry width="113" height="40" as="geometry" />
        </mxCell>
        <mxCell id="4mkFXGUz_fzoKGArRzta-43" value="7" style="shape=partialRectangle;html=1;whiteSpace=wrap;connectable=0;overflow=hidden;fillColor=#dae8fc;top=0;left=0;bottom=0;right=0;strokeColor=#6c8ebf;" parent="4mkFXGUz_fzoKGArRzta-41" vertex="1">
          <mxGeometry x="113" width="114" height="40" as="geometry" />
        </mxCell>
        <mxCell id="4mkFXGUz_fzoKGArRzta-44" value="1" style="shape=partialRectangle;html=1;whiteSpace=wrap;connectable=0;overflow=hidden;fillColor=#dae8fc;top=0;left=0;bottom=0;right=0;strokeColor=#6c8ebf;" parent="4mkFXGUz_fzoKGArRzta-41" vertex="1">
          <mxGeometry x="227" width="113" height="40" as="geometry" />
        </mxCell>
        <mxCell id="4mkFXGUz_fzoKGArRzta-76" value="&lt;font style=&quot;font-size: 18px&quot;&gt;Grantt Chart&lt;/font&gt;" style="text;html=1;align=center;verticalAlign=middle;resizable=0;points=[];autosize=1;" parent="1" vertex="1">
          <mxGeometry x="830" y="560" width="110" height="20" as="geometry" />
        </mxCell>
        <mxCell id="4mkFXGUz_fzoKGArRzta-77" value="P1" style="text;html=1;align=center;verticalAlign=middle;resizable=0;points=[];autosize=1;" parent="1" vertex="1">
          <mxGeometry x="480" y="660" width="30" height="20" as="geometry" />
        </mxCell>
        <mxCell id="4mkFXGUz_fzoKGArRzta-78" value="P3" style="text;html=1;align=center;verticalAlign=middle;resizable=0;points=[];autosize=1;" parent="1" vertex="1">
          <mxGeometry x="510" y="660" width="30" height="20" as="geometry" />
        </mxCell>
        <mxCell id="4mkFXGUz_fzoKGArRzta-79" value="P2" style="text;html=1;align=center;verticalAlign=middle;resizable=0;points=[];autosize=1;" parent="1" vertex="1">
          <mxGeometry x="630" y="660" width="30" height="20" as="geometry" />
        </mxCell>
        <mxCell id="4mkFXGUz_fzoKGArRzta-80" value="P3" style="text;html=1;align=center;verticalAlign=middle;resizable=0;points=[];autosize=1;" parent="1" vertex="1">
          <mxGeometry x="730" y="660" width="30" height="20" as="geometry" />
        </mxCell>
        <mxCell id="4mkFXGUz_fzoKGArRzta-81" value="" style="shape=table;html=1;whiteSpace=wrap;startSize=0;container=1;collapsible=0;childLayout=tableLayout;" parent="1" vertex="1">
          <mxGeometry x="490" y="610" width="397" height="40" as="geometry" />
        </mxCell>
        <mxCell id="4mkFXGUz_fzoKGArRzta-82" value="" style="shape=partialRectangle;html=1;whiteSpace=wrap;collapsible=0;dropTarget=0;pointerEvents=0;fillColor=none;top=0;left=0;bottom=0;right=0;points=[[0,0.5],[1,0.5]];portConstraint=eastwest;" parent="4mkFXGUz_fzoKGArRzta-81" vertex="1">
          <mxGeometry width="397" height="40" as="geometry" />
        </mxCell>
        <mxCell id="4mkFXGUz_fzoKGArRzta-83" value="" style="shape=partialRectangle;html=1;whiteSpace=wrap;connectable=0;overflow=hidden;fillColor=#fff2cc;top=0;left=0;bottom=0;right=0;strokeColor=#d6b656;" parent="4mkFXGUz_fzoKGArRzta-82" vertex="1">
          <mxGeometry width="28" height="40" as="geometry" />
        </mxCell>
        <mxCell id="4mkFXGUz_fzoKGArRzta-84" value="" style="shape=partialRectangle;html=1;whiteSpace=wrap;connectable=0;overflow=hidden;fillColor=#fff2cc;top=0;left=0;bottom=0;right=0;strokeColor=#d6b656;" parent="4mkFXGUz_fzoKGArRzta-82" vertex="1">
          <mxGeometry x="28" width="29" height="40" as="geometry" />
        </mxCell>
        <mxCell id="4mkFXGUz_fzoKGArRzta-85" value="" style="shape=partialRectangle;html=1;whiteSpace=wrap;connectable=0;overflow=hidden;fillColor=#fff2cc;top=0;left=0;bottom=0;right=0;strokeColor=#d6b656;" parent="4mkFXGUz_fzoKGArRzta-82" vertex="1">
          <mxGeometry x="57" width="28" height="40" as="geometry" />
        </mxCell>
        <mxCell id="4mkFXGUz_fzoKGArRzta-86" value="" style="shape=partialRectangle;html=1;whiteSpace=wrap;connectable=0;overflow=hidden;fillColor=#fff2cc;top=0;left=0;bottom=0;right=0;strokeColor=#d6b656;" parent="4mkFXGUz_fzoKGArRzta-82" vertex="1">
          <mxGeometry x="85" width="28" height="40" as="geometry" />
        </mxCell>
        <mxCell id="4mkFXGUz_fzoKGArRzta-87" value="" style="shape=partialRectangle;html=1;whiteSpace=wrap;connectable=0;overflow=hidden;fillColor=#fff2cc;top=0;left=0;bottom=0;right=0;strokeColor=#d6b656;" parent="4mkFXGUz_fzoKGArRzta-82" vertex="1">
          <mxGeometry x="113" width="29" height="40" as="geometry" />
        </mxCell>
        <mxCell id="4mkFXGUz_fzoKGArRzta-88" value="" style="shape=partialRectangle;html=1;whiteSpace=wrap;connectable=0;overflow=hidden;fillColor=#fff2cc;top=0;left=0;bottom=0;right=0;strokeColor=#d6b656;" parent="4mkFXGUz_fzoKGArRzta-82" vertex="1">
          <mxGeometry x="142" width="28" height="40" as="geometry" />
        </mxCell>
        <mxCell id="4mkFXGUz_fzoKGArRzta-89" value="" style="shape=partialRectangle;html=1;whiteSpace=wrap;connectable=0;overflow=hidden;fillColor=#fff2cc;top=0;left=0;bottom=0;right=0;strokeColor=#d6b656;" parent="4mkFXGUz_fzoKGArRzta-82" vertex="1">
          <mxGeometry x="170" width="28" height="40" as="geometry" />
        </mxCell>
        <mxCell id="4mkFXGUz_fzoKGArRzta-90" value="" style="shape=partialRectangle;html=1;whiteSpace=wrap;connectable=0;overflow=hidden;fillColor=#dae8fc;top=0;left=0;bottom=0;right=0;strokeColor=#6c8ebf;" parent="4mkFXGUz_fzoKGArRzta-82" vertex="1">
          <mxGeometry x="198" width="29" height="40" as="geometry" />
        </mxCell>
        <mxCell id="4mkFXGUz_fzoKGArRzta-91" value="" style="shape=partialRectangle;html=1;whiteSpace=wrap;connectable=0;overflow=hidden;fillColor=#e1d5e7;top=0;left=0;bottom=0;right=0;strokeColor=#9673a6;" parent="4mkFXGUz_fzoKGArRzta-82" vertex="1">
          <mxGeometry x="227" width="28" height="40" as="geometry" />
        </mxCell>
        <mxCell id="4mkFXGUz_fzoKGArRzta-92" value="" style="shape=partialRectangle;html=1;whiteSpace=wrap;connectable=0;overflow=hidden;fillColor=#e1d5e7;top=0;left=0;bottom=0;right=0;strokeColor=#9673a6;" parent="4mkFXGUz_fzoKGArRzta-82" vertex="1">
          <mxGeometry x="255" width="25" height="40" as="geometry" />
        </mxCell>
        <mxCell id="4mkFXGUz_fzoKGArRzta-93" value="" style="shape=partialRectangle;html=1;whiteSpace=wrap;connectable=0;overflow=hidden;fillColor=#f8cecc;top=0;left=0;bottom=0;right=0;strokeColor=#b85450;" parent="4mkFXGUz_fzoKGArRzta-82" vertex="1">
          <mxGeometry x="280" width="32" height="40" as="geometry" />
        </mxCell>
        <mxCell id="4mkFXGUz_fzoKGArRzta-94" value="" style="shape=partialRectangle;html=1;whiteSpace=wrap;connectable=0;overflow=hidden;fillColor=#f8cecc;top=0;left=0;bottom=0;right=0;strokeColor=#b85450;" parent="4mkFXGUz_fzoKGArRzta-82" vertex="1">
          <mxGeometry x="312" width="28" height="40" as="geometry" />
        </mxCell>
        <mxCell id="4mkFXGUz_fzoKGArRzta-95" value="" style="shape=partialRectangle;html=1;whiteSpace=wrap;connectable=0;overflow=hidden;fillColor=#f8cecc;top=0;left=0;bottom=0;right=0;strokeColor=#b85450;" parent="4mkFXGUz_fzoKGArRzta-82" vertex="1">
          <mxGeometry x="340" width="28" height="40" as="geometry" />
        </mxCell>
        <mxCell id="4mkFXGUz_fzoKGArRzta-96" value="" style="shape=partialRectangle;html=1;whiteSpace=wrap;connectable=0;overflow=hidden;fillColor=#f8cecc;top=0;left=0;bottom=0;right=0;strokeColor=#b85450;" parent="4mkFXGUz_fzoKGArRzta-82" vertex="1">
          <mxGeometry x="368" width="29" height="40" as="geometry" />
        </mxCell>
        <mxCell id="4mkFXGUz_fzoKGArRzta-97" value="Arrival" style="text;html=1;align=center;verticalAlign=middle;resizable=0;points=[];autosize=1;" parent="1" vertex="1">
          <mxGeometry x="435" y="580" width="50" height="20" as="geometry" />
        </mxCell>
        <mxCell id="4mkFXGUz_fzoKGArRzta-98" value="P1" style="text;html=1;align=center;verticalAlign=middle;resizable=0;points=[];autosize=1;" parent="1" vertex="1">
          <mxGeometry x="485" y="580" width="30" height="20" as="geometry" />
        </mxCell>
        <mxCell id="4mkFXGUz_fzoKGArRzta-99" value="P2" style="text;html=1;align=center;verticalAlign=middle;resizable=0;points=[];autosize=1;" parent="1" vertex="1">
          <mxGeometry x="540" y="580" width="30" height="20" as="geometry" />
        </mxCell>
        <mxCell id="4mkFXGUz_fzoKGArRzta-100" value="P3" style="text;html=1;align=center;verticalAlign=middle;resizable=0;points=[];autosize=1;" parent="1" vertex="1">
          <mxGeometry x="590" y="580" width="30" height="20" as="geometry" />
        </mxCell>
        <mxCell id="4mkFXGUz_fzoKGArRzta-101" value="P4" style="text;html=1;align=center;verticalAlign=middle;resizable=0;points=[];autosize=1;" parent="1" vertex="1">
          <mxGeometry x="680" y="580" width="30" height="20" as="geometry" />
        </mxCell>
        <mxCell id="6RM5U4Z7Fa3Avpie7AiD-1" value="P2" style="text;html=1;align=center;verticalAlign=middle;resizable=0;points=[];autosize=1;" vertex="1" parent="1">
          <mxGeometry x="797" y="660" width="30" height="20" as="geometry" />
        </mxCell>
      </root>
    </mxGraphModel>
  </diagram>
</mxfile>
